<?xml version="1.0" encoding="UTF-8" standalone="no"?>
<!-- Created with Inkscape (http://www.inkscape.org/) -->

<svg
   width="766.51019"
   height="754.61908"
   viewBox="0 0 766.51019 754.61908"
   version="1.1"
   id="svg1"
   inkscape:version="1.3 (0e150ed6c4, 2023-07-21)"
   sodipodi:docname="v2-splash-screen.svg"
   xmlns:inkscape="http://www.inkscape.org/namespaces/inkscape"
   xmlns:sodipodi="http://sodipodi.sourceforge.net/DTD/sodipodi-0.dtd"
   xmlns="http://www.w3.org/2000/svg"
   xmlns:svg="http://www.w3.org/2000/svg"
   xmlns:rdf="http://www.w3.org/1999/02/22-rdf-syntax-ns#"
   xmlns:cc="http://creativecommons.org/ns#"
   xmlns:dc="http://purl.org/dc/elements/1.1/">
  <sodipodi:namedview
     id="namedview1"
     pagecolor="#5f5f5f"
     bordercolor="#949494"
     borderopacity="1"
     inkscape:showpageshadow="false"
     inkscape:pageopacity="0"
     inkscape:pagecheckerboard="1"
     inkscape:deskcolor="#5e5e5e"
     inkscape:document-units="px"
     labelstyle="default"
     inkscape:zoom="0.51969076"
     inkscape:cx="561.8726"
     inkscape:cy="1301.7357"
     inkscape:window-width="1920"
     inkscape:window-height="991"
     inkscape:window-x="-9"
     inkscape:window-y="-9"
     inkscape:window-maximized="1"
     inkscape:current-layer="layer1" />
  <defs
     id="defs1" />
  <g
     inkscape:label="Layer 1"
     inkscape:groupmode="layer"
     id="layer1"
     transform="translate(-156.74486,-263.12057)">
    <g
       id="g35"
       inkscape:export-filename="..\..\..\splash-logo.png"
       inkscape:export-xdpi="96"
       inkscape:export-ydpi="96">
      <g
         id="g34"
         inkscape:label="widget"
         transform="matrix(0.79642313,0,0,0.79642313,109.93152,88.872904)">
        <g
           id="g24"
           transform="translate(-6.2921411e-5,-15.768181)">
          <g
             id="g23">
            <circle
               style="font-variation-settings:'wght' 900;fill:#ffd700;fill-opacity:1;stroke-width:3.3;stroke-linecap:square;stroke-miterlimit:3.4;stroke-dashoffset:0.755906;paint-order:markers stroke fill"
               id="path20"
               cx="631.16217"
               cy="719.33228"
               r="34.015747" />
            <circle
               style="font-variation-settings:'wght' 900;fill:#00ff00;fill-opacity:1;stroke-width:3.3;stroke-linecap:square;stroke-miterlimit:3.4;stroke-dashoffset:0.755906;paint-order:markers stroke fill"
               id="circle20"
               cx="540"
               cy="719.33228"
               r="34.015747" />
            <circle
               style="font-variation-settings:'wght' 900;fill:#ff1e09;fill-opacity:1;stroke-width:3.3;stroke-linecap:square;stroke-miterlimit:3.4;stroke-dashoffset:0.755906;paint-order:markers stroke fill"
               id="circle21"
               cx="448.8378"
               cy="719.33228"
               r="34.015747" />
          </g>
          <text
             xml:space="preserve"
             style="font-style:normal;font-variant:normal;font-weight:normal;font-stretch:normal;font-size:12.8597px;line-height:0.9;font-family:Cairo;-inkscape-font-specification:'Cairo, @wght=900';font-variant-ligatures:normal;font-variant-caps:normal;font-variant-numeric:normal;font-variant-east-asian:normal;font-variation-settings:'wght' 900;text-align:center;text-anchor:middle;opacity:1;fill:#16191d;fill-opacity:1;stroke-width:0.958981;stroke-linecap:square;stroke-miterlimit:3.4;stroke-dashoffset:0.755906;paint-order:markers stroke fill"
             x="-416.66174"
             y="781.60663"
             id="text18"
             transform="matrix(6.698518,0,0,6.6985175,3331.9638,-4582.0998)"><tspan
               sodipodi:role="line"
               id="tspan18"
               style="font-style:normal;font-variant:normal;font-weight:normal;font-stretch:normal;font-size:12.8597px;font-family:Cairo;-inkscape-font-specification:'Cairo, @wght=900';font-variant-ligatures:normal;font-variant-caps:normal;font-variant-numeric:normal;font-variant-east-asian:normal;font-variation-settings:'wght' 900;fill:#ffffff;stroke-width:0.958981"
               x="-416.66174"
               y="781.60663">SIMON</tspan></text>
        </g>
        <g
           id="g33"
           transform="translate(-1573.6094,-1092.9759)">
          <path
             d="m 1917.1348,1782.3477 h -243.0899 a 441.75786,441.75784 0 0 0 1.3418,17.9082 441.75786,441.75784 0 0 0 0,0.019 441.75784,441.75786 0 0 0 4.9121,32.584 441.75784,441.75786 0 0 0 7.3379,32.1562 441.75786,441.75784 0 0 0 0,0.01 441.75784,441.75786 0 0 0 9.711,31.4863 441.75786,441.75784 0 0 0 12.0468,30.6934 441.75784,441.75786 0 0 0 14.3067,29.707 441.75786,441.75784 0 0 0 16.4785,28.5391 441.75784,441.75786 0 0 0 18.5723,27.2422 441.75786,441.75784 0 0 0 20.5488,25.7695 441.75786,441.75784 0 0 0 0.01,0.01 441.75784,441.75786 0 0 0 22.4102,24.1523 441.75784,441.75786 0 0 0 24.166,22.4258 441.75784,441.75786 0 0 0 25.7871,20.5644 441.75786,441.75784 0 0 0 27.2187,18.5586 441.75784,441.75786 0 0 0 28.5665,16.4922 441.75784,441.75786 0 0 0 29.6855,14.2949 441.75784,441.75786 0 0 0 30.6973,12.0489 441.75786,441.75784 0 0 0 0.012,0 441.75786,441.75784 0 0 0 0.01,0 441.75784,441.75786 0 0 0 31.4747,9.7071 441.75784,441.75786 0 0 0 32.1347,7.3359 441.75786,441.75784 0 0 0 0.01,0 441.75786,441.75784 0 0 0 0.012,0 441.75784,441.75786 0 0 0 32.6094,4.9141 441.75784,441.75786 0 0 0 14.5742,1.0918 v -243.2149 a 199.85471,199.85471 0 0 1 -9.705,-1.0937 199.85471,199.85471 0 0 1 -42.2422,-14.7813 199.85471,199.85471 0 0 1 -37.8946,-23.8105 199.85471,199.85471 0 0 1 -31.6445,-31.6446 199.85471,199.85471 0 0 1 -23.8105,-37.8945 199.85471,199.85471 0 0 1 -14.7813,-42.2422 199.85471,199.85471 0 0 1 -1.4687,-13.039 z"
             style="font-variation-settings:'wght' 900;opacity:1;fill:#004adf;fill-opacity:1;stroke-width:0.573291;stroke-linecap:square;stroke-miterlimit:3.4;stroke-dashoffset:0.755906;paint-order:markers stroke fill"
             id="path33" />
          <path
             d="m 2148.2148,1946.8535 v 243.2149 a 441.75784,441.75786 0 0 0 14.5743,-1.0918 441.75784,441.75786 0 0 0 32.625,-4.918 441.75784,441.75786 0 0 0 32.1308,-7.334 441.75784,441.75786 0 0 0 31.4942,-9.7129 441.75784,441.75786 0 0 0 30.6992,-12.0488 441.75784,441.75786 0 0 0 29.6914,-14.2988 441.75784,441.75786 0 0 0 28.5547,-16.4864 441.75784,441.75786 0 0 0 27.2402,-18.5722 441.75784,441.75786 0 0 0 25.7656,-20.545 441.75784,441.75786 0 0 0 24.1817,-22.4394 441.75784,441.75786 0 0 0 22.4082,-24.1504 441.75784,441.75786 0 0 0 20.5605,-25.7812 441.75784,441.75786 0 0 0 18.5684,-27.2364 441.75784,441.75786 0 0 0 24.416,-42.289 441.75784,441.75786 0 0 0 0.5898,-1.2325 441.75784,441.75786 0 0 0 23.6719,-60.3125 441.75784,441.75786 0 0 0 0.334,-1.1093 441.75784,441.75786 0 0 0 14.4863,-63.4727 441.75784,441.75786 0 0 0 0.094,-0.668 441.75784,441.75786 0 0 0 2.5488,-34.0214 H 2309.76 a 199.85471,199.85471 0 0 1 -1.4688,13.039 199.85471,199.85471 0 0 1 -14.7812,42.2422 199.85471,199.85471 0 0 1 -23.8086,37.8945 199.85471,199.85471 0 0 1 -31.6465,31.6446 199.85471,199.85471 0 0 1 -37.8926,23.8105 199.85471,199.85471 0 0 1 -42.2422,14.7813 199.85471,199.85471 0 0 1 -9.7051,1.0937 z"
             style="font-variation-settings:'wght' 900;opacity:1;fill:#ff1e09;fill-opacity:1;stroke-width:0.573291;stroke-linecap:square;stroke-miterlimit:3.4;stroke-dashoffset:0.755906;paint-order:markers stroke fill"
             id="path32" />
          <path
             d="m 2148.2148,1311.7637 v 242.4726 a 199.85471,199.85471 0 0 1 9.7051,1.836 199.85471,199.85471 0 0 1 14.4356,3.8672 199.85471,199.85471 0 0 1 14.1074,4.9375 199.85471,199.85471 0 0 1 13.6992,5.9765 199.85471,199.85471 0 0 1 13.2129,6.9824 199.85471,199.85471 0 0 1 12.6543,7.9512 199.85471,199.85471 0 0 1 12.0254,8.875 199.85471,199.85471 0 0 1 11.3281,9.75 199.85471,199.85471 0 0 1 10.5684,10.5684 199.85471,199.85471 0 0 1 9.75,11.3281 199.85471,199.85471 0 0 1 8.875,12.0254 199.85471,199.85471 0 0 1 7.9511,12.6543 199.85471,199.85471 0 0 1 6.9825,13.2129 199.85471,199.85471 0 0 1 5.9785,13.6992 199.85471,199.85471 0 0 1 4.9355,14.1074 199.85471,199.85471 0 0 1 3.8672,14.4356 199.85471,199.85471 0 0 1 1.2051,6.3711 h 244.0293 a 441.75784,441.75786 0 0 0 -0.2051,-2.6582 441.75784,441.75786 0 0 0 -1.4629,-13.5274 441.75784,441.75786 0 0 0 -1.8789,-13.4746 441.75784,441.75786 0 0 0 -2.2949,-13.4121 441.75784,441.75786 0 0 0 -2.7051,-13.334 441.75784,441.75786 0 0 0 -3.1152,-13.2441 441.75784,441.75786 0 0 0 -3.5215,-13.1407 441.75784,441.75786 0 0 0 -3.9238,-13.0273 441.75784,441.75786 0 0 0 -4.3242,-12.9004 441.75784,441.75786 0 0 0 -4.7188,-12.7617 441.75784,441.75786 0 0 0 -5.1094,-12.6094 441.75784,441.75786 0 0 0 -5.4961,-12.4453 441.75784,441.75786 0 0 0 -5.8769,-12.2715 441.75784,441.75786 0 0 0 -6.25,-12.084 441.75784,441.75786 0 0 0 -6.6211,-11.8867 441.75784,441.75786 0 0 0 -37.1934,-54.5527 441.75784,441.75786 0 0 0 -44.9082,-48.4004 441.75784,441.75786 0 0 0 -51.6211,-41.166 441.75784,441.75786 0 0 0 -57.1797,-33.0117 441.75784,441.75786 0 0 0 -61.4609,-24.1231 441.75784,441.75786 0 0 0 -64.3691,-14.6914 441.75784,441.75786 0 0 0 -31.0743,-2.3281 z"
             style="font-variation-settings:'wght' 900;opacity:1;fill:#00d307;fill-opacity:1;stroke-width:0.573291;stroke-linecap:square;stroke-miterlimit:3.4;stroke-dashoffset:0.755906;paint-order:markers stroke fill"
             id="path31" />
          <path
             d="m 2078.6816,1554.9785 v -243.2148 a 441.75784,441.75786 0 0 0 -31.0742,2.3281 441.75784,441.75786 0 0 0 -64.3691,14.6914 441.75784,441.75786 0 0 0 -61.4629,24.1231 441.75784,441.75786 0 0 0 -57.1777,33.0117 441.75784,441.75786 0 0 0 -51.6211,41.166 441.75784,441.75786 0 0 0 -44.9082,48.4004 441.75784,441.75786 0 0 0 -37.1934,54.5527 441.75784,441.75786 0 0 0 -28.6484,59.4863 441.75784,441.75786 0 0 0 -19.461,63.0918 441.75784,441.75786 0 0 0 -9.0722,60.1993 h 244.1933 a 199.85471,199.85471 0 0 1 0.7168,-6.3711 199.85471,199.85471 0 0 1 14.7813,-42.2422 199.85471,199.85471 0 0 1 23.8105,-37.8926 199.85471,199.85471 0 0 1 31.6445,-31.6465 199.85471,199.85471 0 0 1 37.8946,-23.8086 199.85471,199.85471 0 0 1 42.2422,-14.7812 199.85471,199.85471 0 0 1 9.705,-1.0938 z"
             style="font-variation-settings:'wght' 900;opacity:1;fill:#ffd700;stroke-width:0.573291;stroke-linecap:square;stroke-miterlimit:3.4;stroke-dashoffset:0.755906;paint-order:markers stroke fill"
             id="path30" />
        </g>
      </g>
      <g
         id="g18"
         transform="matrix(5.3348542,0,0,5.3348546,-3629.7572,-1607.3714)"
         style="display:inline;stroke:#ffff00"
         inkscape:label="bigsimon">
        <rect
           style="font-variation-settings:'wght' 900;opacity:1;fill:#22272b;fill-opacity:1;stroke:#ffff00;stroke-width:1.56394;stroke-linecap:square;stroke-miterlimit:3.4;stroke-dasharray:none;stroke-dashoffset:0.755906;paint-order:markers stroke fill"
           id="rect2"
           width="142.11575"
           height="50.628899"
           x="710.54871"
           y="440.6571"
           ry="10.259602" />
        <text
           xml:space="preserve"
           style="font-style:normal;font-variant:normal;font-weight:normal;font-stretch:normal;font-size:35.1485px;line-height:0.9;font-family:Cairo;-inkscape-font-specification:'Cairo, @wght=900';font-variant-ligatures:normal;font-variant-caps:normal;font-variant-numeric:normal;font-variant-east-asian:normal;font-variation-settings:'wght' 900;text-align:center;text-anchor:middle;opacity:1;fill:#263126;fill-opacity:1;stroke:#ffff00;stroke-width:2.62112;stroke-linecap:square;stroke-miterlimit:3.4;stroke-dashoffset:0.755906;stroke-opacity:1;paint-order:markers stroke fill"
           x="781.99323"
           y="471.95038"
           id="text1"><tspan
             sodipodi:role="line"
             id="tspan1"
             style="font-style:normal;font-variant:normal;font-weight:normal;font-stretch:normal;font-size:35.1485px;font-family:Cairo;-inkscape-font-specification:'Cairo, @wght=900';font-variant-ligatures:normal;font-variant-caps:normal;font-variant-numeric:normal;font-variant-east-asian:normal;font-variation-settings:'wght' 900;fill:#263126;fill-opacity:1;stroke:#ffff00;stroke-width:2.62112;stroke-opacity:1"
             x="781.99323"
             y="471.95038">SIMON</tspan></text>
      </g>
      <text
         xml:space="preserve"
         style="font-style:normal;font-variant:normal;font-weight:normal;font-stretch:normal;font-size:61.2047px;line-height:0.9;font-family:Cairo;-inkscape-font-specification:'Cairo, @wght=900';font-variant-ligatures:normal;font-variant-caps:normal;font-variant-numeric:normal;font-variant-east-asian:normal;font-variation-settings:'wght' 900;text-align:center;text-anchor:middle;opacity:1;fill:#ffff00;fill-opacity:1;stroke:none;stroke-width:3.84128;stroke-linecap:butt;stroke-linejoin:bevel;stroke-miterlimit:3.4;stroke-dasharray:none;stroke-dashoffset:0.755906;stroke-opacity:1;paint-order:fill markers stroke"
         x="542.4389"
         y="984.13403"
         id="text34"><tspan
           sodipodi:role="line"
           id="tspan34"
           x="542.4389"
           y="984.13403"
           style="stroke-width:3.84128">MEMORY CHALLENGE</tspan></text>
    </g>
  </g>
  <metadata
     id="metadata1">
    <rdf:RDF>
      <cc:Work
         rdf:about="">
        <dc:creator>
          <cc:Agent>
            <dc:title>Yasser Muayed</dc:title>
          </cc:Agent>
        </dc:creator>
      </cc:Work>
    </rdf:RDF>
  </metadata>
</svg>
