<svg width="22" height="22" viewBox="0 0 22 22" fill="none" xmlns="http://www.w3.org/2000/svg">
    <g filter="url(#filter0_ii_179265_51)">
        <path
            d="M19.0925 12.3252C18.8086 12.1085 18.668 11.7574 18.6918 11.4011C18.7006 11.2683 18.7057 11.1346 18.7057 11.0001C18.7057 10.8659 18.7006 10.7325 18.6918 10.5999C18.6681 10.2432 18.8091 9.89168 19.0935 9.67512L20.8076 8.37012C21.0029 8.22012 21.0594 7.95012 20.9309 7.73012L18.8753 4.26512C18.7469 4.05012 18.4796 3.96012 18.2484 4.05012L16.207 4.85179C15.885 4.97822 15.5231 4.9253 15.2324 4.73778C14.989 4.58071 14.736 4.43614 14.474 4.30573C14.1564 4.1477 13.9209 3.8545 13.8698 3.50347L13.5668 1.42012C13.5205 1.18512 13.3098 1.00012 13.0529 1.00012H8.94175C8.6848 1.00012 8.4741 1.18512 8.43299 1.42012L8.12998 3.50347C8.07893 3.8545 7.84341 4.14767 7.5255 4.30503C7.26437 4.43428 7.01227 4.57745 6.76962 4.73413C6.47723 4.92293 6.11309 4.97756 5.78914 4.85034L3.75141 4.05012C3.52016 3.96512 3.25293 4.05012 3.12446 4.26512L1.06888 7.73012C0.940407 7.94512 0.996936 8.21512 1.19222 8.37012L2.90215 9.67506C3.18602 9.8917 3.32662 10.2428 3.30288 10.5991C3.29403 10.732 3.28891 10.8656 3.28891 11.0001C3.28891 11.1346 3.29403 11.2683 3.30288 11.4011C3.32662 11.7574 3.18601 12.1085 2.90215 12.3252L1.19222 13.6301C0.996936 13.7801 0.940407 14.0501 1.06888 14.2701L3.12446 17.7351C3.25293 17.9501 3.52016 18.0401 3.75141 17.9501L5.79282 17.1485C6.11478 17.022 6.4767 17.0749 6.76735 17.2625C7.0108 17.4195 7.26377 17.5641 7.52582 17.6945C7.8434 17.8525 8.07893 18.1457 8.12998 18.4968L8.43299 20.5801C8.4741 20.8151 8.6848 21.0001 8.94175 21.0001H13.0529C13.3098 21.0001 13.5205 20.8151 13.5617 20.5801L13.8647 18.4968C13.9157 18.1457 14.1512 17.8526 14.4691 17.6952C14.7303 17.566 14.9824 17.4228 15.225 17.2661C15.5174 17.0773 15.8816 17.0227 16.2055 17.1499L18.2432 17.9501C18.4745 18.0351 18.7417 17.9501 18.8702 17.7351L20.9258 14.2701C21.0542 14.0551 20.9977 13.7851 20.8024 13.6301L19.0925 12.3252ZM10.9973 14.5001C9.00855 14.5001 7.40006 12.9351 7.40006 11.0001C7.40006 9.06512 9.00855 7.50012 10.9973 7.50012C12.9861 7.50012 14.5946 9.06512 14.5946 11.0001C14.5946 12.9351 12.9861 14.5001 10.9973 14.5001Z"
            stroke="url(#paint0_linear_179265_51)" stroke-opacity="0.5" stroke-width="2"
            stroke-linecap="round" stroke-linejoin="round" />
    </g>
    <defs>
        <filter id="filter0_ii_179265_51" x="-0.500763" y="-0.499878" width="23.5008" height="23.5"
            filterUnits="userSpaceOnUse" color-interpolation-filters="sRGB">
            <feFlood flood-opacity="0" result="BackgroundImageFix" />
            <feBlend mode="normal" in="SourceGraphic" in2="BackgroundImageFix" result="shape" />
            <feColorMatrix in="SourceAlpha" type="matrix"
                values="0 0 0 0 0 0 0 0 0 0 0 0 0 0 0 0 0 0 127 0" result="hardAlpha" />
            <feOffset dx="-0.5" dy="-0.5" />
            <feGaussianBlur stdDeviation="0.25" />
            <feComposite in2="hardAlpha" operator="arithmetic" k2="-1" k3="1" />
            <feColorMatrix type="matrix" values="0 0 0 0 1 0 0 0 0 1 0 0 0 0 1 0 0 0 0.1 0" />
            <feBlend mode="normal" in2="shape" result="effect1_innerShadow_179265_51" />
            <feColorMatrix in="SourceAlpha" type="matrix"
                values="0 0 0 0 0 0 0 0 0 0 0 0 0 0 0 0 0 0 127 0" result="hardAlpha" />
            <feOffset dx="1" dy="1" />
            <feGaussianBlur stdDeviation="0.5" />
            <feComposite in2="hardAlpha" operator="arithmetic" k2="-1" k3="1" />
            <feColorMatrix type="matrix"
                values="0 0 0 0 0.113021 0 0 0 0 0.129167 0 0 0 0 0.145312 0 0 0 0.5 0" />
            <feBlend mode="normal" in2="effect1_innerShadow_179265_51"
                result="effect2_innerShadow_179265_51" />
        </filter>
        <linearGradient id="paint0_linear_179265_51" x1="20.9999" y1="22.8183" x2="-0.555939"
            y2="5.6848" gradientUnits="userSpaceOnUse">
            <stop stop-color="#2D3134" />
            <stop offset="0.234375" stop-color="#57636E" />
            <stop offset="0.442708" stop-color="#EBEFF3" />
            <stop offset="0.682292" stop-color="#AFBBC7" />
            <stop offset="1" stop-color="#768BA2" />
        </linearGradient>
    </defs>
</svg>