<?xml version="1.0" encoding="UTF-8" standalone="no"?>
<!-- Created with Inkscape (http://www.inkscape.org/) -->

<svg
   width="511.99976"
   height="512.00006"
   viewBox="0 0 135.4666 135.46668"
   version="1.1"
   id="svg1"
   inkscape:version="1.3 (0e150ed6c4, 2023-07-21)"
   sodipodi:docname="simon-memory-challange-logo-v2.svg"
   xmlns:inkscape="http://www.inkscape.org/namespaces/inkscape"
   xmlns:sodipodi="http://sodipodi.sourceforge.net/DTD/sodipodi-0.dtd"
   xmlns:xlink="http://www.w3.org/1999/xlink"
   xmlns="http://www.w3.org/2000/svg"
   xmlns:svg="http://www.w3.org/2000/svg">
  <sodipodi:namedview
     id="namedview1"
     pagecolor="#505050"
     bordercolor="#ffffff"
     borderopacity="1"
     inkscape:showpageshadow="0"
     inkscape:pageopacity="0"
     inkscape:pagecheckerboard="1"
     inkscape:deskcolor="#d1d1d1"
     inkscape:document-units="mm"
     inkscape:zoom="0.4762257"
     inkscape:cx="3981.3055"
     inkscape:cy="1505.5886"
     inkscape:window-width="1920"
     inkscape:window-height="991"
     inkscape:window-x="-9"
     inkscape:window-y="-9"
     inkscape:window-maximized="1"
     inkscape:current-layer="layer1"
     showguides="true">
    <sodipodi:guide
       position="-407.58171,671.88267"
       orientation="0,-1"
       id="guide32"
       inkscape:locked="false" />
    <sodipodi:guide
       position="-418.64596,667.48175"
       orientation="1,0"
       id="guide33"
       inkscape:locked="false" />
    <sodipodi:guide
       position="-387.15314,637.31095"
       orientation="0,-1"
       id="guide34"
       inkscape:locked="false" />
    <sodipodi:guide
       position="-384.07464,645.57996"
       orientation="1,0"
       id="guide35"
       inkscape:locked="false" />
    <sodipodi:guide
       position="-463.03906,652.63613"
       orientation="1,0"
       id="guide36"
       inkscape:locked="false" />
    <sodipodi:guide
       position="-428.46735,651.3255"
       orientation="1,0"
       id="guide37"
       inkscape:locked="false" />
    <sodipodi:guide
       position="-399.18439,627.48957"
       orientation="0,-1"
       id="guide38"
       inkscape:locked="false" />
    <sodipodi:guide
       position="-403.32078,592.91827"
       orientation="0,-1"
       id="guide39"
       inkscape:locked="false" />
    <sodipodi:guide
       position="-423.55642,387.63852"
       orientation="1,0"
       id="guide145"
       inkscape:locked="false" />
    <sodipodi:guide
       position="-472.67229,338.52318"
       orientation="0,-1"
       id="guide146"
       inkscape:locked="false" />
  </sodipodi:namedview>
  <defs
     id="defs1">
    <linearGradient
       id="linearGradient149"
       inkscape:collect="always">
      <stop
         style="stop-color:#c5c515;stop-opacity:1;"
         offset="0"
         id="stop150" />
      <stop
         style="stop-color:#fafad2;stop-opacity:0;"
         offset="1"
         id="stop151" />
    </linearGradient>
    <linearGradient
       id="linearGradient147"
       inkscape:collect="always">
      <stop
         style="stop-color:#eefd00;stop-opacity:1;"
         offset="0.93189365"
         id="stop148" />
      <stop
         style="stop-color:#bdbd00;stop-opacity:0;"
         offset="1"
         id="stop149" />
    </linearGradient>
    <linearGradient
       id="linearGradient146"
       inkscape:collect="always">
      <stop
         style="stop-color:#ffffff;stop-opacity:1;"
         offset="0"
         id="stop146" />
      <stop
         style="stop-color:#cbd99c;stop-opacity:1;"
         offset="1"
         id="stop147" />
    </linearGradient>
    <linearGradient
       id="linearGradient117"
       inkscape:collect="always">
      <stop
         style="stop-color:#383838;stop-opacity:1;"
         offset="0"
         id="stop116" />
      <stop
         style="stop-color:#1f1f1f;stop-opacity:1;"
         offset="1"
         id="stop117" />
    </linearGradient>
    <linearGradient
       id="linearGradient98"
       inkscape:collect="always">
      <stop
         style="stop-color:#ffffff;stop-opacity:0.23713647;"
         offset="0"
         id="stop98" />
      <stop
         style="stop-color:#ffffff;stop-opacity:0;"
         offset="1"
         id="stop99" />
    </linearGradient>
    <linearGradient
       id="linearGradient96"
       inkscape:collect="always">
      <stop
         style="stop-color:#ff0000;stop-opacity:1;"
         offset="0"
         id="stop96" />
      <stop
         style="stop-color:#ff0000;stop-opacity:0;"
         offset="1"
         id="stop97" />
    </linearGradient>
    <linearGradient
       id="linearGradient94"
       inkscape:collect="always">
      <stop
         style="stop-color:#0000ff;stop-opacity:1;"
         offset="0"
         id="stop94" />
      <stop
         style="stop-color:#0000ff;stop-opacity:0;"
         offset="1"
         id="stop95" />
    </linearGradient>
    <linearGradient
       id="linearGradient92"
       inkscape:collect="always">
      <stop
         style="stop-color:#ffd700;stop-opacity:1;"
         offset="0"
         id="stop92" />
      <stop
         style="stop-color:#ffd700;stop-opacity:0;"
         offset="1"
         id="stop93" />
    </linearGradient>
    <linearGradient
       id="linearGradient89"
       inkscape:collect="always">
      <stop
         style="stop-color:#00ff00;stop-opacity:1;"
         offset="0"
         id="stop90" />
      <stop
         style="stop-color:#00ff00;stop-opacity:0;"
         offset="1"
         id="stop91" />
    </linearGradient>
    <linearGradient
       id="linearGradient87"
       inkscape:collect="always">
      <stop
         style="stop-color:#353535;stop-opacity:1;"
         offset="0"
         id="stop88" />
      <stop
         style="stop-color:#0e0e0e;stop-opacity:1;"
         offset="1"
         id="stop89" />
    </linearGradient>
    <filter
       inkscape:collect="always"
       style="color-interpolation-filters:sRGB"
       id="filter97"
       x="-0.30764301"
       y="-0.30764301"
       width="1.615286"
       height="1.615286">
      <feGaussianBlur
         inkscape:collect="always"
         stdDeviation="3.1033206"
         id="feGaussianBlur97" />
    </filter>
    <radialGradient
       inkscape:collect="always"
       xlink:href="#linearGradient117"
       id="radialGradient158"
       gradientUnits="userSpaceOnUse"
       gradientTransform="translate(0,4.5631338e-5)"
       cx="551.45782"
       cy="448.23981"
       fx="551.45782"
       fy="448.23981"
       r="49.115349" />
    <linearGradient
       inkscape:collect="always"
       xlink:href="#linearGradient92"
       id="linearGradient158"
       gradientUnits="userSpaceOnUse"
       gradientTransform="matrix(1.1420502,0,0,1.1420424,-72.726269,122.77171)"
       x1="511.97568"
       y1="250.41605"
       x2="546.54736"
       y2="284.98776" />
    <linearGradient
       inkscape:collect="always"
       xlink:href="#linearGradient89"
       id="linearGradient159"
       gradientUnits="userSpaceOnUse"
       gradientTransform="matrix(1.1395573,0,0,1.1281301,-82.470005,126.25559)"
       x1="590.94012"
       y1="250.41602"
       x2="556.36877"
       y2="284.98776" />
    <linearGradient
       inkscape:collect="always"
       xlink:href="#linearGradient96"
       id="linearGradient160"
       gradientUnits="userSpaceOnUse"
       gradientTransform="matrix(1.1420391,0,0,1.1559592,-83.936623,106.97147)"
       x1="590.94012"
       y1="329.38043"
       x2="556.36877"
       y2="294.80914" />
    <linearGradient
       inkscape:collect="always"
       xlink:href="#linearGradient94"
       id="linearGradient161"
       gradientUnits="userSpaceOnUse"
       gradientTransform="matrix(1.14205,0,0,1.1420474,-72.726145,111.55376)"
       x1="511.97571"
       y1="329.38046"
       x2="546.54736"
       y2="294.80917" />
    <radialGradient
       inkscape:collect="always"
       xlink:href="#linearGradient87"
       id="radialGradient161"
       gradientUnits="userSpaceOnUse"
       gradientTransform="translate(0,158.34141)"
       cx="551.45813"
       cy="290.59424"
       fx="551.45813"
       fy="290.59424"
       r="32.088322" />
    <radialGradient
       inkscape:collect="always"
       xlink:href="#linearGradient147"
       id="radialGradient162"
       gradientUnits="userSpaceOnUse"
       cx="551.45813"
       cy="448.93564"
       fx="551.45813"
       fy="448.93564"
       r="32.465321" />
    <radialGradient
       inkscape:collect="always"
       xlink:href="#linearGradient98"
       id="radialGradient163"
       gradientUnits="userSpaceOnUse"
       cx="541.36639"
       cy="284.98776"
       fx="541.36639"
       fy="284.98776"
       r="16.058393" />
    <radialGradient
       inkscape:collect="always"
       xlink:href="#linearGradient146"
       id="radialGradient164"
       gradientUnits="userSpaceOnUse"
       gradientTransform="matrix(1,0,0,0.79561316,0,91.756546)"
       cx="551.45813"
       cy="448.9357"
       fx="551.45813"
       fy="448.9357"
       r="22.822485" />
    <radialGradient
       inkscape:collect="always"
       xlink:href="#linearGradient149"
       id="radialGradient165"
       gradientUnits="userSpaceOnUse"
       gradientTransform="matrix(1,0,0,0.79782778,0,90.762325)"
       cx="551.45813"
       cy="448.9357"
       fx="551.45813"
       fy="448.9357"
       r="23.072485" />
  </defs>
  <g
     inkscape:label="Layer 1"
     inkscape:groupmode="layer"
     id="layer1"
     transform="translate(-975.01474,-278.763)">
    <g
       id="g165"
       transform="matrix(1.3790665,0,0,1.3790666,-33.418069,-271.65625)">
      <g
         id="g158"
         transform="translate(228.90057)">
        <path
           id="path151"
           style="fill:url(#radialGradient158);stroke-width:0.564253;stroke-linecap:round;stroke-linejoin:bevel"
           d="m 507.9137,399.12448 c -0.38577,0 -0.76274,0.0393 -1.12603,0.11317 -0.36329,0.074 -0.7135,0.18291 -1.04696,0.32349 -0.33346,0.14056 -0.64994,0.31229 -0.9462,0.51211 -0.29627,0.19982 -0.572,0.42782 -0.82372,0.67955 -0.25172,0.25172 -0.47919,0.52746 -0.67903,0.82372 -0.19982,0.29627 -0.37206,0.61273 -0.51263,0.9462 -0.14057,0.33345 -0.24952,0.68367 -0.32349,1.04696 -0.074,0.36329 -0.11318,0.73975 -0.11318,1.12551 v 43.54463 43.54463 c 0,0.38578 0.0393,0.76223 0.11318,1.12552 0.074,0.36328 0.18292,0.7135 0.32349,1.04696 0.14057,0.33345 0.31281,0.64993 0.51263,0.94619 0.19984,0.29627 0.42731,0.57251 0.67903,0.82424 0.25172,0.25172 0.52745,0.47921 0.82372,0.67903 0.29626,0.19984 0.61274,0.37155 0.9462,0.51212 0.33346,0.14057 0.68367,0.25005 1.04696,0.32401 0.36329,0.074 0.74026,0.11265 1.12603,0.11265 h 43.54463 43.54463 c 0.38577,0 0.7617,-0.0386 1.12499,-0.11265 0.36329,-0.0739 0.71352,-0.18344 1.04697,-0.32401 0.33347,-0.14057 0.65044,-0.31228 0.94671,-0.51212 0.29628,-0.19982 0.57199,-0.42731 0.82372,-0.67903 0.25172,-0.25173 0.47973,-0.52797 0.67955,-0.82424 0.19983,-0.29626 0.37153,-0.61274 0.51211,-0.94619 0.14056,-0.33346 0.24954,-0.68368 0.3235,-1.04696 0.074,-0.36329 0.11265,-0.73974 0.11265,-1.12552 v -43.54463 -43.54463 c 0,-0.38576 -0.0387,-0.76222 -0.11265,-1.12551 -0.0739,-0.36329 -0.18294,-0.71351 -0.3235,-1.04696 -0.14058,-0.33347 -0.31228,-0.64993 -0.51211,-0.9462 -0.19982,-0.29626 -0.42783,-0.572 -0.67955,-0.82372 -0.25173,-0.25173 -0.52744,-0.47973 -0.82372,-0.67955 -0.29627,-0.19982 -0.61324,-0.37155 -0.94671,-0.51211 -0.33345,-0.14058 -0.68368,-0.24953 -1.04697,-0.32349 -0.36329,-0.0739 -0.73922,-0.11317 -1.12499,-0.11317 h -43.54463 z" />
        <path
           d="m 551.45832,408.75746 h -35.00424 c -0.3101,0 -0.6129,0.0315 -0.90496,0.091 -0.29203,0.0594 -0.57346,0.14713 -0.84153,0.26016 -0.26804,0.11306 -0.52247,0.25116 -0.76065,0.4118 -0.23814,0.16061 -0.45993,0.34362 -0.66228,0.54598 -0.20236,0.20237 -0.38537,0.42414 -0.546,0.66229 -0.16063,0.23817 -0.29881,0.49259 -0.4118,0.76064 -0.11306,0.26806 -0.20068,0.54949 -0.26015,0.84153 -0.0595,0.29204 -0.091,0.59484 -0.091,0.90494 v 35.004 h 39.4826 z"
           style="fill:url(#linearGradient158);stroke-width:0.453585;stroke-linecap:round;stroke-linejoin:bevel"
           id="path152" />
        <path
           d="m 551.54411,408.75746 v 39.00139 h 39.396 v -34.57762 c 0,-0.30632 -0.0311,-0.60544 -0.0904,-0.89391 -0.0594,-0.28849 -0.14681,-0.5665 -0.25957,-0.83128 -0.11281,-0.26479 -0.25061,-0.51612 -0.4109,-0.75138 -0.16028,-0.23526 -0.3429,-0.45432 -0.54482,-0.65421 -0.20191,-0.1999 -0.4232,-0.38068 -0.66084,-0.53935 -0.23764,-0.15867 -0.49197,-0.29516 -0.75944,-0.40678 -0.26747,-0.11169 -0.54828,-0.19824 -0.8397,-0.25698 -0.2914,-0.0588 -0.59308,-0.0899 -0.90252,-0.0899 z"
           style="fill:url(#linearGradient159);stroke-width:0.450322;stroke-linecap:round;stroke-linejoin:bevel"
           id="path153" />
        <path
           d="m 551.45832,447.75886 v 39.96299 h 35.0039 c 0.31011,0 0.61245,-0.0315 0.90448,-0.0917 0.29206,-0.0602 0.57348,-0.14893 0.84154,-0.26331 0.26804,-0.11433 0.52293,-0.25422 0.76109,-0.41682 0.23816,-0.16259 0.45993,-0.34783 0.66228,-0.55265 0.20235,-0.20483 0.38538,-0.4293 0.54602,-0.67037 0.16062,-0.24105 0.29879,-0.49857 0.41179,-0.76989 0.11295,-0.27132 0.20067,-0.55665 0.26014,-0.85225 0.0595,-0.2956 0.0906,-0.60162 0.0906,-0.91552 v -35.4305 z"
           style="fill:url(#linearGradient160);stroke-width:0.456338;stroke-linecap:round;stroke-linejoin:bevel"
           id="path154" />
        <path
           d="m 551.4583,448.23982 h -39.48259 v 35.00413 c 0,0.31011 0.0315,0.61244 0.091,0.9045 0.0595,0.29203 0.14714,0.57393 0.26014,0.84199 0.11295,0.26805 0.25116,0.52247 0.4118,0.76063 0.16064,0.23816 0.34365,0.45994 0.546,0.66229 0.20236,0.20236 0.42412,0.38537 0.66229,0.546 0.23816,0.16064 0.49259,0.29881 0.76064,0.4118 0.26806,0.11306 0.54949,0.20068 0.84153,0.26014 0.29205,0.0595 0.59486,0.0906 0.90497,0.0906 h 35.00422 z"
           style="fill:url(#linearGradient161);stroke-width:0.453586;stroke-linecap:round;stroke-linejoin:bevel"
           id="path155" />
        <circle
           style="fill:url(#radialGradient161);fill-opacity:1;stroke:url(#radialGradient162);stroke-width:4.954;stroke-linecap:round;stroke-linejoin:bevel;stroke-dasharray:none;stroke-opacity:1;paint-order:stroke fill markers"
           id="circle155"
           cx="551.45813"
           cy="448.93564"
           r="32.088322" />
        <circle
           style="fill:url(#radialGradient163);stroke-width:0.284376;stroke-linecap:round;stroke-linejoin:bevel;filter:url(#filter97)"
           id="circle156"
           cx="541.36639"
           cy="284.98776"
           r="12.10489"
           transform="matrix(0.9342412,0,0,0.9342412,35.599595,177.08186)" />
        <text
           xml:space="preserve"
           style="font-style:normal;font-variant:normal;font-weight:bold;font-stretch:normal;font-size:10.3557px;font-family:'Comic Sans MS';-inkscape-font-specification:'Comic Sans MS, Bold';font-variant-ligatures:normal;font-variant-caps:normal;font-variant-numeric:normal;font-variant-east-asian:normal;text-align:center;text-anchor:middle;fill:url(#radialGradient164);fill-opacity:1;stroke:url(#radialGradient165);stroke-width:0.5;stroke-linecap:round;stroke-linejoin:bevel;stroke-dasharray:none;paint-order:markers stroke fill"
           x="551.52136"
           y="438.35245"
           id="text158"><tspan
             sodipodi:role="line"
             id="tspan156"
             style="font-style:normal;font-variant:normal;font-weight:bold;font-stretch:normal;font-size:10.3557px;font-family:'Comic Sans MS';-inkscape-font-specification:'Comic Sans MS, Bold';font-variant-ligatures:normal;font-variant-caps:normal;font-variant-numeric:normal;font-variant-east-asian:normal;text-align:center;text-anchor:middle;fill:url(#radialGradient164);stroke:url(#radialGradient165);stroke-width:0.5;stroke-dasharray:none;paint-order:markers stroke fill"
             x="551.52136"
             y="438.35245">Simon</tspan><tspan
             sodipodi:role="line"
             style="font-style:normal;font-variant:normal;font-weight:bold;font-stretch:normal;font-size:10.3557px;font-family:'Comic Sans MS';-inkscape-font-specification:'Comic Sans MS, Bold';font-variant-ligatures:normal;font-variant-caps:normal;font-variant-numeric:normal;font-variant-east-asian:normal;text-align:center;text-anchor:middle;fill:url(#radialGradient164);stroke:url(#radialGradient165);stroke-width:0.5;stroke-dasharray:none;paint-order:markers stroke fill"
             x="551.52136"
             y="451.29706"
             id="tspan157">Memory</tspan><tspan
             sodipodi:role="line"
             style="font-style:normal;font-variant:normal;font-weight:bold;font-stretch:normal;font-size:10.3557px;font-family:'Comic Sans MS';-inkscape-font-specification:'Comic Sans MS, Bold';font-variant-ligatures:normal;font-variant-caps:normal;font-variant-numeric:normal;font-variant-east-asian:normal;text-align:center;text-anchor:middle;fill:url(#radialGradient164);stroke:url(#radialGradient165);stroke-width:0.5;stroke-dasharray:none;paint-order:markers stroke fill"
             x="551.52136"
             y="464.2417"
             id="tspan158">Challange</tspan></text>
      </g>
    </g>
  </g>
</svg>
